{
	"asset":{
		"generator":"Khronos glTF Blender I/O v3.6.28",
		"version":"2.0"
	},
	"scene":0,
	"scenes":[
		{
			"name":"Scene",
			"nodes":[
				0,
				1,
				2
			]
		}
	],
	"nodes":[
		{
			"camera":0,
			"name":"Camera.001",
			"rotation":[
				0,
				0.7071068286895752,
				-0.7071068286895752,
				3.090862321641907e-08
			],
			"translation":[
				-0.04590848833322525,
				-0.28560003638267517,
				0.15896831452846527
			]
		},
		{
			"mesh":0,
			"name":"Cylinder.002",
			"translation":[
				0,
				0.8312715291976929,
				0
			]
		},
		{
			"mesh":1,
			"name":"Plane",
			"translation":[
				0,
				1.563736915588379,
				0
			]
		}
	],
	"cameras":[
		{
			"name":"Camera.001",
			"perspective":{
				"aspectRatio":1.7777777777777777,
				"yfov":0.39959651231765747,
				"zfar":1000,
				"znear":0.10000000149011612
			},
			"type":"perspective"
		}
	],
	"meshes":[
		{
			"name":"Cylinder.002",
			"primitives":[
				{
					"attributes":{
						"POSITION":0,
						"NORMAL":1,
						"TEXCOORD_0":2
					},
					"indices":3
				}
			]
		},
		{
			"name":"Plane",
			"primitives":[
				{
					"attributes":{
						"POSITION":4,
						"NORMAL":5,
						"TEXCOORD_0":6
					},
					"indices":7
				}
			]
		}
	],
	"accessors":[
		{
			"bufferView":0,
			"componentType":5126,
			"count":67424,
			"max":[
				4.468836784362793,
				490.8179626464844,
				4.468836784362793
			],
			"min":[
				-4.468836784362793,
				-4.468832969665527,
				-4.468836784362793
			],
			"type":"VEC3"
		},
		{
			"bufferView":1,
			"componentType":5126,
			"count":67424,
			"type":"VEC3"
		},
		{
			"bufferView":2,
			"componentType":5126,
			"count":67424,
			"type":"VEC2"
		},
		{
			"bufferView":3,
			"componentType":5125,
			"count":192384,
			"type":"SCALAR"
		},
		{
			"bufferView":4,
			"componentType":5126,
			"count":4,
			"max":[
				1,
				0,
				1
			],
			"min":[
				-1,
				0,
				-1
			],
			"type":"VEC3"
		},
		{
			"bufferView":5,
			"componentType":5126,
			"count":4,
			"type":"VEC3"
		},
		{
			"bufferView":6,
			"componentType":5126,
			"count":4,
			"type":"VEC2"
		},
		{
			"bufferView":7,
			"componentType":5123,
			"count":6,
			"type":"SCALAR"
		}
	],
	"bufferViews":[
		{
			"buffer":0,
			"byteLength":809088,
			"byteOffset":0,
			"target":34962
		},
		{
			"buffer":0,
			"byteLength":809088,
			"byteOffset":809088,
			"target":34962
		},
		{
			"buffer":0,
			"byteLength":539392,
			"byteOffset":1618176,
			"target":34962
		},
		{
			"buffer":0,
			"byteLength":769536,
			"byteOffset":2157568,
			"target":34963
		},
		{
			"buffer":0,
			"byteLength":48,
			"byteOffset":2927104,
			"target":34962
		},
		{
			"buffer":0,
			"byteLength":48,
			"byteOffset":2927152,
			"target":34962
		},
		{
			"buffer":0,
			"byteLength":32,
			"byteOffset":2927200,
			"target":34962
		},
		{
			"buffer":0,
			"byteLength":12,
			"byteOffset":2927232,
			"target":34963
		}
	],
	"buffers":[
		{
			"byteLength":2927244,
			"uri":"data:application/octet-stream;base64,"
		}
	]
}
