{
	"asset":{
		"generator":"Khronos glTF Blender I/O v3.6.28",
		"version":"2.0"
	},
	"extensionsUsed":[
		"KHR_materials_emissive_strength"
	],
	"scene":0,
	"scenes":[
		{
			"name":"Scene",
			"nodes":[
				0,
				1,
				2,
				3
			]
		}
	],
	"nodes":[
		{
			"camera":0,
			"name":"Camera.001",
			"rotation":[
				0,
				0.7071068286895752,
				-0.7071068286895752,
				3.090862321641907e-08
			],
			"translation":[
				-0.04590848833322525,
				-0.28560003638267517,
				0.15896831452846527
			]
		},
		{
			"name":"chipRoot",
			"translation":[
				50.70820617675781,
				-2.2559328079223633,
				7.756251811981201
			]
		},
		{
			"mesh":0,
			"name":"Sphere",
			"scale":[
				4.207424640655518,
				4.207424640655518,
				4.207424640655518
			],
			"translation":[
				19.15329933166504,
				3.4859261512756348,
				26.998676300048828
			]
		},
		{
			"mesh":1,
			"name":"Cylinder.002",
			"translation":[
				0,
				0.8312715291976929,
				0
			]
		}
	],
	"cameras":[
		{
			"name":"Camera.001",
			"perspective":{
				"aspectRatio":1.7777777777777777,
				"yfov":0.39959651231765747,
				"zfar":1000,
				"znear":0.10000000149011612
			},
			"type":"perspective"
		}
	],
	"materials":[
		{
			"alphaCutoff":0.5,
			"alphaMode":"MASK",
			"doubleSided":true,
			"emissiveFactor":[
				0,
				0.003918733913451433,
				1
			],
			"extensions":{
				"KHR_materials_emissive_strength":{
					"emissiveStrength":17.899999618530273
				}
			},
			"name":"Material.002",
			"pbrMetallicRoughness":{
				"baseColorFactor":[
					0.800000011920929,
					0.800000011920929,
					0.800000011920929,
					1
				],
				"metallicFactor":0,
				"roughnessFactor":0.5
			}
		}
	],
	"meshes":[
		{
			"name":"Sphere",
			"primitives":[
				{
					"attributes":{
						"POSITION":0,
						"NORMAL":1,
						"TEXCOORD_0":2
					},
					"indices":3,
					"material":0
				}
			]
		},
		{
			"name":"Cylinder.002",
			"primitives":[
				{
					"attributes":{
						"POSITION":4,
						"NORMAL":5,
						"TEXCOORD_0":6
					},
					"indices":7
				}
			]
		}
	],
	"accessors":[
		{
			"bufferView":0,
			"componentType":5126,
			"count":1984,
			"max":[
				0.9999997019767761,
				1,
				0.9999993443489075
			],
			"min":[
				-0.9999990463256836,
				-1,
				-1
			],
			"type":"VEC3"
		},
		{
			"bufferView":1,
			"componentType":5126,
			"count":1984,
			"type":"VEC3"
		},
		{
			"bufferView":2,
			"componentType":5126,
			"count":1984,
			"type":"VEC2"
		},
		{
			"bufferView":3,
			"componentType":5123,
			"count":2880,
			"type":"SCALAR"
		},
		{
			"bufferView":4,
			"componentType":5126,
			"count":67424,
			"max":[
				4.468836784362793,
				490.8179626464844,
				4.468836784362793
			],
			"min":[
				-4.468836784362793,
				-4.468832969665527,
				-4.468836784362793
			],
			"type":"VEC3"
		},
		{
			"bufferView":5,
			"componentType":5126,
			"count":67424,
			"type":"VEC3"
		},
		{
			"bufferView":6,
			"componentType":5126,
			"count":67424,
			"type":"VEC2"
		},
		{
			"bufferView":7,
			"componentType":5125,
			"count":192384,
			"type":"SCALAR"
		}
	],
	"bufferViews":[
		{
			"buffer":0,
			"byteLength":23808,
			"byteOffset":0,
			"target":34962
		},
		{
			"buffer":0,
			"byteLength":23808,
			"byteOffset":23808,
			"target":34962
		},
		{
			"buffer":0,
			"byteLength":15872,
			"byteOffset":47616,
			"target":34962
		},
		{
			"buffer":0,
			"byteLength":5760,
			"byteOffset":63488,
			"target":34963
		},
		{
			"buffer":0,
			"byteLength":809088,
			"byteOffset":69248,
			"target":34962
		},
		{
			"buffer":0,
			"byteLength":809088,
			"byteOffset":878336,
			"target":34962
		},
		{
			"buffer":0,
			"byteLength":539392,
			"byteOffset":1687424,
			"target":34962
		},
		{
			"buffer":0,
			"byteLength":769536,
			"byteOffset":2226816,
			"target":34963
		}
	],
	"buffers":[
		{
			"byteLength":2996352,
			"uri":"data:application/octet-stream;base64,"
		}
	]
}
